<svg id="SvgjsSvg1001" width="288" height="288" xmlns="http://www.w3.org/2000/svg" version="1.1" xmlns:xlink="http://www.w3.org/1999/xlink" xmlns:svgjs="http://svgjs.com/svgjs"><defs id="SvgjsDefs1002"></defs><g id="SvgjsG1008"><svg xmlns="http://www.w3.org/2000/svg" version="1.0" viewBox="0 0 1920 900" width="288" height="288"><g transform="matrix(.1 0 0 -.1 0 900)" fill="#071a52" class="color000 svgShape"><path d="M0 4500 l0 -4500 9600 0 9600 0 0 365 0 365 -1554 0 -1554 0 -112-51 c-403 -181 -786 -281 -1270 -330 -273 -27 -931 -21 -1250 12 -52 5 -122
12 -155 15 -112 9 -339 35 -555 64 -599 80 -960 91 -2180 68 -676 -12 -1080
-4 -1400 27 -838 84 -1395 302 -1825 717 -203 195 -369 427 -510 713 -171 345
-379 953 -488 1425 -145 624 -170 1203 -72 1672 217 1048 1035 1684 2440 1897
158 24 436 55 684 76 104 8 188 20 192 26 3 6 15 56 25 112 26 138 26 423 1
550 -46 231 -165 483 -319 680 -146 186 -402 411 -628 551 l-74 46 -4298 0
-4298 0 0 -4500z m830 -4025 c89 -46 105 -159 34 -231 -30 -29 -41 -34 -83
-34 -106 0 -164 113 -109 211 34 62 100 84 158 54z m525 1 c53 -23 77 -69 72
-140 -3 -53 -7 -62 -40 -92 -86 -80 -212 -15 -210 107 1 53 23 93 68 120 36
23 64 24 110 5z m525 -1 c68 -35 93 -107 65 -181 -56 -148 -261 -89 -243 70
11 96 100 151 178 111z" fill="#071a52" class="color000 svgShape"></path><path d="M9625 6573c-44-23-74-53-96-95-18-36-19-72-19-922l0-885-37-3-38-3-3-242-2-243 27 0c57 0 71-39 15-41-15 0 11-9 58-20 47-10 96-23 109-29 23-10 23-11 6-30-10-11-43-24-76-31l-59-12 0-571 0-571 25-78c45-140 59-247 59-437 0-185-12-258-54-340-25-50-82-114-133-151l-38-27 28-27c38-35 91-62 160-80 51-13 357-14 2625-8 1953 5 2568 4 2568-5 0-9 418-12 1725-12l1725 0 0 465 0 465-1469 0-1468 0-7 31c-9 47-7 59 9 59 8 0 16 13 20 33 11 66 45 418 57 595l12 184 36-6c81-15 249-18 315-7 221 37 320 191 272 421-10 46-15 55-32 53-11-2-122-4-247-5-222-3-228-3-228 17 0 11-4 27-9 35-7 10-9 3-7-22 3-35 2-36-60-60l-62-25-7 36c-3 20-9 44-12 55-3 11-1 16 5 12 6-3 14-1 18 5 4 8 3 9-5 5-6-4-14 0-17 8-3 9-12 16-20 16-8 0-14 5-14 10 0 6 5 10 12 10 6 0 3 7-8 15-14 11-15 14-4 15 13 0 13 1 0 10-13 8-13 10 1 10 19 0 32 26 22 43-7 12-8 19-19 111-5 44-3 60 7 67 12 7 12 9-1 9-26 0 24 28 71 40 129 33 179 41 227 38 36-2 52 1 52 9 0 40-103 40-254 2-43-11-81-18-83-15-3 3 0 35 6 72 7 36 10 68 8 70-2 3-14-34-27-80-20-75-26-86-51-95-24-8-29-7-34 9-3 10-21 32-40 49-39 34-42 41-20 41 9 0 18 8 22 18 3 9 25 68 49 130 24 63 44 116 44 118 0 2-63 4-140 4-136 0-142-1-165-25-21-20-25-34-25-85 0-36-4-60-11-60-22 0-4-43 19-47 40-6 65-23 53-37-7-8-5-12 9-12 10 0 16 4 14 8-10 15 3 8 30-17 15-14 32-23 37-20 5 4 12-1 15-9 3-9 13-16 21-16 8 0 12-4 9-9-3-5 4-11 15-14 13-4 18-10 13-18-4-8-3-10 4-5 26 16 48-57 67-222 4-39 3-52-6-47-6 4-5-3 4-16 8-13 14-37 13-54-1-16 2-32 5-35 4-3 9-33 11-68 4-51 3-60-8-51-8 6-12 14-11 18 2 3-7 16-20 28-13 12-23 19-23 15 0-5-42-18-92-31-51-12-127-35-168-50l-75-27-12-49c-26-102-45-386-59-857-6-218-5-228 12-228 16 0-79-57-200-120-28-14-25-15 67-18l97-3 0-64 0-65-2457 0c-2363 0-2460 1-2498 19-50 22-91 69-105 119-6 24-10 289-10 745l0 709 28-6c48-10 329-56 341-56 8 0 11 78 9 283l-3 282-185 32c-102 18-186 32-187 32-2 1-3 375-3 831 0 727 2 835 15 868 20 47 50 79 97 103 37 19 103 19 3061 17l3023-3 42-28c23-15 51-45 62-67 20-38 20-56 20-910 0-846 1-876 23-1043 12-95 22-203 22-242 0-57-4-76-22-102-22-30-23-38-23-267l0-237 93 3 92 3 0 1440 0 1440-24 42c-14 24-42 55-64 70l-40 28-3206 2c-2909 2-3209 1-3236-14zm5453-1911c3-17-2-22-17-22-14 0-21 6-21 18 0 38 33 41 38 4zm109 17c16-16 5-39-18-39-12 0-19 7-19 18 0 31 17 41 37 21zm-122-1782l7-157 30-8c30-7 29-8-48-50-103-56-119-56-128 4-4 34-2 50 7 58 8 6 29 100 51 226 21 118 43 238 49 265 11 50 12 49 18-65 4-63 10-186 14-273zm2895-777l0-250-1605 0-1605 0 0 250 0 250 1605 0 1605 0 0-250zM8574 5708c-81-86-78-81-86-201-3-62-10-149-14-194-7-80-6-85 25-145 17-35 40-74 51-87 19-22 23-23 36-9 8 8 22 41 30 74 9 32 19 65 24 73 4 9 3 24-4 35-9 15-10 38-4 83 9 55 13 62 39 73 22 9 36 10 53 2 20-9 32-5 76 24 52 34 90 44 90 23 0-8 14-10 45-6 27 4 45 3 45-3 0-6 9-10 20-10 36 0 82-29 76-48-4-9 7-3 23 15 53 57 65 164 24 204-10 10-65 31-123 48-112 32-354 91-374 91-7 0-30-19-52-42z" fill="#071a52" class="color000 svgShape"></path><path d="M15524 5650c-54-17-127-73-156-120-21-34-35-84-58-203-34-181-39-307-14-380l16-46 47 33c33 22 74 38 130 50 76 17 82 20 77 40-3 11-6 29-6 38 0 10-11 19-28 23-36 7-80 49-98 91-15 35-19 200-6 220 4 6 22 19 41 28 18 10 52 35 75 56l42 39 82-64c44-35 86-74 92-85 8-14 17-19 30-15 26 8 60-28 60-62 0-44-22-78-50-78-28 0-59-44-60-83 0-31-17-61-53-95-25-23-28-32-23-60 9-47 56-118 95-144 37-25 75-28 148-13 77 17 76 15 53 116-16 66-24 147-31 309-5 121-13 233-17 250-9 32-101 113-162 142-41 20-178 27-226 13zM12790 4200c0-607-3-920-10-920-5 0-10-14-10-31 0-25-3-30-17-26-270 79-357 91-653 92-278 0-400-13-698-75l-144-29-34 31-34 31 0 910 0 909-61-4c-54-4-66-9-90-36l-29-32 0-946 0-946 34-34 34-34 1731 0c1883 0 1767-3 1805 54 15 23 16 109 16 961 0 852-1 938-16 961-25 37-66 54-134 54l-60 0 0-909 0-909-36-31c-21-19-43-30-52-27-39 12-278 57-407 76-178 28-491 37-648 20-163-17-309-50-419-95-14-6-18-2-18 17 0 13-7 33-15 44-12 16-14 145-15 932 0 601-3 912-10 912-7 0-10-313-10-920zM8554 5001c3-4-4-25-14-47-24-46-24-50-6-35 10 8 16 9 21 1 4-6 3-10-2-9-16 4-43-13-37-23 4-6 1-13-5-17-12-8-23-44-23-73 1-10-3-18-8-18-12 0-35-108-32-150 2-22 0-30-6-23-5 8-8 0-9-23-1-19-7-48-13-65-7-16-10-38-7-49 3-11 2-20-2-20-4 0-8-6-9-12-1-7-3-24-6-38-40-225-48-580-15-615 12-12 12-28 0-21-5 4-4-7 2-24 6-16 17-30 24-30 7 0 13-6 13-14 0-17 16-23 55-20 17 2 59 5 95 7 82 6 273 25 323 33 36 6 37 5 27-18-29-67-89-403-154-863-59-419-71-527-65-573 23-171 37-387 26-398-1-2-33 6-69 17-42 13-69 27-73 38-4 13-28 22-88 33-45 9-83 15-85 13-7-7-45-176-40-181 3-3 68-10 144-15 77-6 186-16 244-24 100-13 106-13 120 5 13 17 34 20 183 26 92 4 170 11 173 16 8 12-24 46-58 64-16 8-75 22-133 32-66 11-111 24-122 35-16 16-16 17 13 17l30 0-4 758c-2 416-7 817-10 891-6 113-5 135 8 145 22 16 52 85 43 99-4 7-8 21-9 32-4 70-4 70-15 55-8-11-9-7-6 19 4 33-1 63-26 161-10 41-12 43-18 20-6-20-7-21-8-5-2 44 14 47 60 12 24-18 60-45 81-61 26-19 38-24 44-15 5 8 3 9-6 4-9-6-11-4-5 5 5 8 4 11-3 6-6-3-13-2-16 3-8 12 14 8 39-7 11-6 14-12 8-12-7 0-13-5-13-11 0-6 7-9 15-6 8 4 17 1 21-5 5-7 2-8-6-3-9 5-11 4-6-3 10-16 26-15 26 1 0 8 9 22 19 31 11 10 17 24 15 31-3 7 4 20 16 28 14 9 17 17 11 22-6 3-9 11-5 16 4 6 11 6 19-1 10-8 29-6 72 9 66 22 63 25-59 44-81 13-86 12-77-4 5-9 14-20 21-22 8-3 6-6-4-6-10-1-18 2-18 7-1 17-60 73-71 66-7-4-9-3-6 3 8 13-27 46-38 36-4-5-6-3-2 2 3 6-15 31-40 55-25 25-43 39-39 33 4-7 3-13-3-13-5 0-13 9-16 20-4 11-11 18-16 15-5-4-6 2-2 11 5 14 3 16-11 11-11-4-15-3-11 4 9 13-23 49-44 49-14 0-14 2-1 10 13 8 13 11 1 19-8 5-10 14-6 21 5 8 4 11-2 7-5-4-10 7-10 24 0 17-4 34-9 37-5 4-10 16-11 27-5 56-14 99-20 104-5 3-8 15-7 26 0 11-4 34-9 50-5 17-9 36-10 43 0 6-4 12-9 12-5 0-6 10-3 21 5 15 4 19-4 15-6-4-11-1-11 8 0 8-9 20-20 26-11 6-20 8-20 4 0-3-6-1-14 5-8 7-20 11-28 9-21-4-97 35-103 55-4 9-11 17-16 17-6 0-8-4-5-9zm61-57c10 3 13 2 10-4-10-17-58-6-61 14-2 17-1 17 16 1 11-10 26-15 35-11zm122-116c-3-8-6-5-6 6-1 11 2 17 5 13 3-3 4-12 1-19zm-270-170c-3-8-6-5-6 6-1 11 2 17 5 13 3-3 4-12 1-19zm231-163c-3-3-9 2-12 12-6 14-5 15 5 6 7-7 10-15 7-18zm-21-100c0-8-3-13-5-10-3 3-11-3-19-13-16-19-7 4 10 26 12 15 14 15 14-3zm190-122c-4-3-1-13 6-22 11-14 10-14-5-2-16 12-16 31-1 31 4 0 3-3 0-7zm186-38c-3-9-8-14-10-11-3 3-2 9 2 15 9 16 15 13 8-4zm-213-15c0-5-5-10-11-10-5 0-7 5-4 10 3 6 8 10 11 10 2 0 4-4 4-10zm270 6c0-2-8-10-17-17-16-13-17-12-4 4 13 16 21 21 21 13zm25-34c-3-3-11 0-18 7-9 10-8 11 6 5 10-3 15-9 12-12zm-232-16c14-20 14-26 3-36-10-8-16-8-21 0-4 6-3 9 2 8 4-2 8 2 8 7 0 6-3 9-7 8-4-2-6 6-5 17 2 25 1 25 20-4zm51 9c-4-8-11-12-16-9-6 4-5 10 3 15 19 12 19 11 13-6zm73-17c-9-5-14-15-11-22 8-20-8-26-28-12-16 12-16 14 8 25 14 6 22 16 19 21-4 6 1 7 11 3 14-5 15-7 1-15zm-120-80c-3-8-6-5-6 6-1 11 2 17 5 13 3-3 4-12 1-19zm158 12c-3-5-12-10-18-10-7 0-6 4 3 10 19 12 23 12 15 0z" fill="#071a52" class="color000 svgShape"></path><path d="M8995 4140c3-5 8-10 11-10 2 0 4 5 4 10 0 6-5 10-11 10-5 0-7-4-4-10zM17455 4711c-70-32-124-114-150-226-14-60-15-84-5-167l12-96-50-104c-47-95-61-135-77-210l-5-28-275 0c-177 0-275-4-275-10 0-7 363-10 1070-10 707 0 1070 3 1070 10 0 7-187 10-540 10-512 0-540 1-540 18 0 10-27 74-61 142-75 156-75 168 9 289 80 116 102 162 102 213 0 74-58 140-149 173-56 20-87 19-136-4zm41-257c-52-125-52-130 0-88 24 20 44 34 44 32 0-3-24-29-54-59-52-53-53-56-64-134-6-44-14-116-17-160l-5-80 25 51c14 28 37 61 51 75 25 22 24 21-5-20-32-45-60-124-62-170l0-26-11 25c-13 31-3 234 17 333 20 102 98 318 110 305 3-2-10-40-29-84zm-78 24c-3-18-2-59 1-90 4-32 4-58 0-58-10 0-21 123-14 153 10 38 19 34 13-5zm-56-546c15-29 23-52 19-52-4 0-20 24-34 54-19 39-27 69-26 103l2 48 6-51c3-27 18-74 33-102zM15773 4383c-7-56-20-120-29-143-18-45-15-55 14-46 17 6 21 19 27 89 4 45 5 109 3 142-3 59-3 58-15-42zM15005 4431c-3-5-2-12 3-15 5-3 9 1 9 9 0 17-3 19-12 6zM15630 4433c0-4 5-15 10-23 8-13 10-13 10 2 0 9-4 20-10 23-5 3-10 3-10-2zM14980 4406c0-2 7-7 16-10 8-3 12-2 9 4-6 10-25 14-25 6zM15130 4397c0-6 3-7 7-4 3 4 12 2 18-3 9-7 14-7 18 2 3 8-5 14-19 14-13 1-24-3-24-9zM15654 4350c5-46 39-167 43-155 1 6-9 51-22 100-14 50-23 74-21 55zM15055 4310c-4-6-10-8-15-5-5 3-11 1-14-4-8-13 22-7 36 7 7 7 9 12 6 12-4 0-10-5-13-10zM14980 4279c0-5 5-7 10-4 6 3 10 8 10 11 0 2-4 4-10 4-5 0-10-5-10-11zM15345 4220c4-6 11-8 16-5 14 9 11 15-7 15-8 0-12-5-9-10zM15380 4211c0-6 4-13 10-16 6-3 7 1 4 9-7 18-14 21-14 7zM15323 4179c-2-23 3-25 10-4 4 8 3 16-1 19-4 3-9-4-9-15zM15424 4179c-2-4 3-9 11-13 8-3 15-1 15 5 0 6 3 8 8 6 4-2 52-1 107 3l100 8-118-1c-65-1-120-4-123-8zM15005 4173c6-4 10-14 10-22 0-8 7-16 15-18 12-4 12-2 2 5-7 5-12 15-10 22 2 7-4 15-12 17-9 3-11 1-5-4zM15200 4110c-9-6-10-10-3-10 6 0 15 5 18 10 8 12 4 12-15 0zM15123 4087c0-8 6-14 14-14 9 0 10 4 2 14-6 7-12 13-14 13-1 0-2-6-2-13zM15146 4045c23-17 34-19 34-4 0 5-4 8-9 4-5-3-12-1-16 5-3 5-11 10-18 10-6 0-2-7 9-15zM16630 3748l0-38 1018 0c559 0 1041 3 1070 7 51 6 53 7 50 35l-3 28-1068 3-1067 2 0-37zM7155 3742c-93-28-151-60-215-118-72-67-101-130-101-217 0-103 20-147 162-349 121-172 149-227 149-292 0-73-22-135-90-255-129-231-152-327-111-460 22-71 84-157 141-195 85-56 141-66 363-66 232 0 270 8 331 67 64 62 83 113 90 243 8 148-28 289-122 475-99 197-99 197-106 240-4 23 0 101 10 175 25 211 8 331-71 497-101 208-263 304-430 255zm118-399c73-164 141-365 166-493 28-139 43-341 39-525-3-154-3-156 16-133 23 28 79 141 94 188 7 19 16 67 21 105l10 70-3-85c-4-96-26-154-102-276-36-58-44-81-45-120 0-27-4-67-9-89-7-28-8 5-5 106 4 122 2 160-14 223-26 104-69 191-125 254-26 28-44 52-38 52 5 0 30-22 55-49 49-53 93-130 113-201 12-43 12-39 13 78 1 143-12 279-40 412-19 88-24 98-67 143-26 27-71 67-100 89-29 22-50 43-48 46 7 7 41-17 111-76 33-28 61-49 63-48 5 5-76 221-114 305-38 82-38 81-25 81 4 0 20-26 34-57zm183-158c-6-132-13-175-28-175-6 0-7 9-3 23 4 12 10 90 12 172 4 112 8 144 15 125 6-14 8-75 4-145z" fill="#071a52" class="color000 svgShape"></path></g></svg></g></svg>